name C:\Users\u0101727\Documents\MyRepositories\upper-imu-dc\Results\main_tracking\Case_31\FLX01_orientations_groundFrame.mot
datacolumns 13
datarows 32
range 5.01000000 5.32000000
endheader 
time	radius_imu_[0][0]	radius_imu_[0][1]	radius_imu_[0][2]	radius_imu_[1][0]	radius_imu_[1][1]	radius_imu_[1][2]	radius_imu_[2][0]	radius_imu_[2][1]	radius_imu_[2][2]	radius_imu_x	radius_imu_y	radius_imu_z	
          5.01000000	          0.32805230	         -0.87779349	          0.34908492	         -0.32540218	          0.24191543	          0.91410631	         -0.88684560	         -0.41346766	         -0.20627500	         -1.79273656	          0.35659441	          1.21314501	
          5.02000000	          0.32689353	         -0.87379676	          0.36002755	         -0.32306984	          0.25468372	          0.91146151	         -0.88812527	         -0.41426491	         -0.19904293	         -1.78579876	          0.36829742	          1.21280874	
          5.03000000	          0.32534164	         -0.86974243	          0.37108076	         -0.32187455	          0.26713529	          0.90831465	         -0.88912855	         -0.41495404	         -0.19303772	         -1.78020369	          0.38017261	          1.21284418	
          5.04000000	          0.32323891	         -0.86565166	          0.38231375	         -0.32206802	          0.27925087	          0.90459446	         -0.88982515	         -0.41553116	         -0.18853397	         -1.77627308	          0.39229897	          1.21342449	
          5.05000000	          0.32049627	         -0.86154437	          0.39373017	         -0.32368860	          0.29102617	          0.90029410	         -0.89022909	         -0.41598687	         -0.18559929	         -1.77410219	          0.40468603	          1.21465658	
          5.06000000	          0.31714906	         -0.85743359	          0.40524575	         -0.32646908	          0.30248252	          0.89550113	         -0.89041250	         -0.41630755	         -0.18399351	         -1.77344045	          0.41724763	          1.21652040	
          5.07000000	          0.31336829	         -0.85332179	          0.41670401	         -0.32986987	          0.31366750	          0.89039237	         -0.89049772	         -0.41647883	         -0.18319170	         -1.77370754	          0.42981651	          1.21885203	
          5.08000000	          0.30942018	         -0.84920077	          0.42792197	         -0.33321964	          0.32464575	          0.88519479	         -0.89063114	         -0.41648913	         -0.18251842	         -1.77413678	          0.44219235	          1.22138075	
          5.09000000	          0.30559234	         -0.84505523	          0.43874250	         -0.33589322	          0.33548488	          0.88012820	         -0.89094841	         -0.41633106	         -0.18132671	         -1.77397653	          0.45419882	          1.22380372	
          5.10000000	          0.30212077	         -0.84086836	          0.44906952	         -0.33744764	          0.34624313	          0.87535409	         -0.89154480	         -0.41600010	         -0.17914180	         -1.77265966	          0.46572367	          1.22586397	
          5.11000000	          0.29914585	         -0.83662673	          0.45887631	         -0.33767361	          0.35696290	          0.87095007	         -0.89246193	         -0.41549152	         -0.17572280	         -1.76988352	          0.47673008	          1.22740080	
          5.12000000	          0.29670368	         -0.83232299	          0.46819372	         -0.33657363	          0.36767007	          0.86691229	         -0.89369185	         -0.41479773	         -0.17104891	         -1.76560229	          0.48724550	          1.22836338	
          5.13000000	          0.29473825	         -0.82795620	          0.47709317	         -0.33431238	          0.37837631	          0.86317240	         -0.89518970	         -0.41390808	         -0.16527404	         -1.75997937	          0.49734421	          1.22880151	
          5.14000000	          0.29311722	         -0.82353013	          0.48567522	         -0.33117575	          0.38908162	          0.85961510	         -0.89688623	         -0.41281185	         -0.15868669	         -1.75334326	          0.50713545	          1.22885045	
          5.15000000	          0.29165399	         -0.81904936	          0.49406082	         -0.32753054	          0.39977825	          0.85609643	         -0.89870000	         -0.41150395	         -0.15166676	         -1.74613785	          0.51675427	          1.22870786	
          5.16000000	          0.29015343	         -0.81451257	          0.50237463	         -0.32374862	          0.41045902	          0.85247300	         -0.90055417	         -0.40999106	         -0.14460122	         -1.73882256	          0.52634294	          1.22858262	
          5.17000000	          0.28848738	         -0.80990374	          0.51071613	         -0.32008613	          0.42112993	          0.84864271	         -0.90239675	         -0.40829586	         -0.13774829	         -1.73170896	          0.53601753	          1.22860920	
          5.18000000	          0.28667221	         -0.80518508	          0.51913007	         -0.31656714	          0.43182119	          0.84458020	         -0.90421474	         -0.40645719	         -0.13110400	         -1.72479701	          0.54583281	          1.22875732	
          5.19000000	          0.28490157	         -0.80029631	          0.52759541	         -0.31294829	          0.44258894	          0.84034421	         -0.90603226	         -0.40452547	         -0.12435708	         -1.71771357	          0.55576746	          1.22879067	
          5.20000000	          0.28350382	         -0.79516320	          0.53604204	         -0.30880307	          0.45350387	          0.83604719	         -0.90789110	         -0.40255400	         -0.11697876	         -1.70981268	          0.56574163	          1.22831124	
          5.21000000	          0.28283354	         -0.78971339	          0.54438769	         -0.30369685	          0.46463015	          0.83179748	         -0.90982054	         -0.40058905	         -0.10842048	         -1.70041039	          0.57565899	          1.22688206	
          5.22000000	          0.28313706	         -0.78389379	          0.55257935	         -0.29738362	          0.47600243	          0.82763801	         -0.91180940	         -0.39866304	         -0.09834324	         -1.68906576	          0.58545582	          1.22418490	
          5.23000000	          0.28444132	         -0.77768327	          0.56062632	         -0.28995344	          0.48760885	          0.82350751	         -0.91379436	         -0.39679510	         -0.08679583	         -1.67580637	          0.59514197	          1.22015564	
          5.24000000	          0.28650727	         -0.77109603	          0.56861630	         -0.28187831	          0.49938589	          0.81924255	         -0.91567363	         -0.39499954	         -0.07427756	         -1.66121525	          0.60482277	          1.21504629	
          5.25000000	          0.28886965	         -0.76417502	          0.57670692	         -0.27393153	          0.51122748	          0.81462137	         -0.91734172	         -0.39329760	         -0.06165353	         -1.64633598	          0.61469198	          1.20938496	
          5.26000000	          0.29095481	         -0.75697835	          0.58508894	         -0.26699785	          0.52300600	          0.80942997	         -0.91872599	         -0.39172503	         -0.04994049	         -1.63241656	          0.62498973	          1.20384199	
          5.27000000	          0.29223551	         -0.74956431	          0.59392908	         -0.26183919	          0.53459793	          0.80352056	         -0.91980359	         -0.39033115	         -0.04003681	         -1.62058189	          0.63593386	          1.19904977	
          5.28000000	          0.29236761	         -0.74197977	          0.60331352	         -0.25890234	          0.54590542	          0.79684180	         -0.92059261	         -0.38917001	         -0.03249524	         -1.61155378	          0.64764948	          1.19544087	
          5.29000000	          0.29126575	         -0.73425542	          0.61321549	         -0.25823064	          0.55686760	          0.78943994	         -0.92113039	         -0.38828784	         -0.02741079	         -1.60550420	          0.66012486	          1.19315375	
          5.30000000	          0.28910251	         -0.72640784	          0.62349931	         -0.25949356	          0.56746099	          0.78144169	         -0.92145691	         -0.38771081	         -0.02444376	         -1.60206647	          0.67321058	          1.19202456	
          5.31000000	          0.28624361	         -0.71844558	          0.63395626	         -0.26210448	          0.57769226	          0.77302839	         -0.92161046	         -0.38743721	         -0.02294708	         -1.60047227	          0.68665817	          1.19165213	
          5.32000000	          0.28315319	         -0.71037422	          0.64435451	         -0.26537255	          0.58758843	          0.76440647	         -0.92162990	         -0.38743813	         -0.02213628	         -1.59974702	          0.70017890	          1.19149983	
